<?xml version="1.0" encoding="utf-8"?>
<svg viewBox="0 0 640 640" style="fill: var(--fa-navy); display: block; width: 100%; height: 100%;" preserveAspectRatio="xMidYMin" xmlns="http://www.w3.org/2000/svg">
  <path d="M 0 75 L 32 75 L 416 75 L 448 75 C 448 85.7 448 96.3 448 107 C 448 151.9 448 196.7 448 241.6 C 436.8 244.8 426.1 249 416 254.2 C 416 205.1 416 156.1 416 107 C 288 107 160 107 32 107 C 32 235 32 363 32 491 C 134.4 491 236.8 491 339.2 491 C 345.1 502.4 352.1 513.2 360.3 523 C 250.9 523 141.5 523 32 523 C 21.3 523 10.7 523 0 523 L 0 491 L 0 107 C 0 96.3 0 85.7 0 75 Z M 90.6 299 L 100 288.4 L 164 216.4 C 167.5 212.4 171.1 208.4 174.6 204.4 C 182.6 211.5 190.5 218.6 198.5 225.7 C 195 229.7 191.4 233.7 187.9 237.7 C 188 237.6 187.9 237.7 188 237.6 C 169.8 258.1 151.6 278.5 133.4 299 C 151.6 319.4 169.7 339.9 187.9 360.3 C 191.4 364.3 195 368.3 198.5 372.3 C 190.5 379.4 182.6 386.5 174.6 393.6 C 171.1 389.6 167.5 385.6 164 381.6 C 142.7 357.6 121.3 333.6 100 309.6 C 96.9 306.1 93.7 302.5 90.6 299 Z M 249.4 225.7 L 249.5 225.7 C 257.5 218.6 265.4 211.5 273.4 204.4 C 276.9 208.4 280.5 212.4 284 216.4 C 305.3 240.4 326.7 264.4 348 288.4 C 351.1 292 354.2 295.5 357.3 299.1 C 354.2 302.6 351 306.2 347.9 309.7 C 326.6 333.7 305.2 357.7 283.9 381.7 C 280.4 385.7 276.8 389.7 273.3 393.7 C 265.3 386.6 257.4 379.5 249.4 372.4 C 252.9 368.4 256.5 364.4 260 360.4 C 278.2 339.9 296.4 319.5 314.6 299 C 296.4 278.6 278.2 258.1 260 237.7 C 256.5 233.7 252.9 229.7 249.4 225.7 Z M 371.3 339 C 397 294.4 444.6 267 496 267 C 547.4 267 595 294.4 620.7 339 C 646.4 383.6 646.4 438.4 620.7 483 C 595 527.6 547.4 555 496 555 C 444.6 555 397 527.6 371.3 483 C 345.6 438.4 345.6 383.6 371.3 339 Z M 399 355 C 379 389.7 379 432.3 399 467 C 419 501.7 456 523 496 523 C 536 523 573 501.7 593 467 C 613 432.3 613 389.7 593 355 C 573 320.3 536 299 496 299 C 456 299 419 320.3 399 355 Z M 416 427 L 520 331 C 516.4 352.3 512.9 373.7 509.3 395 C 531.5 395 553.8 395 576 395 C 541.3 427 506.7 459 472 491 C 475.6 469.7 479.1 448.3 482.7 427 C 460.5 427 438.2 427 416 427 Z" style="fill: rgb(112, 20, 232);"/>
</svg>